# xmcd
#
# Track frame offsets:
#	150
#	19008
#	34336
#	52401
#	69350
#	88466
#	103761
#	121860
#
# Disc length: 1849 seconds
#
# Revision: 0
# Processed by: cddbd v1.5.2PL0 Copyright (c) Steve Scherf et al.
# Submitted via: audiograbber 1.83.01
#
DISCID=70073708
DTITLE=Le Ann Rimes - The Singing Machine G9147
DYEAR=1900
DGENRE=Country
TTITLE0=Le Ann Rimes - How Do I Live
TTITLE1=Le Ann Rimes - On The Side Of Angels
TTITLE2=Le Ann Rimes - Unchained Melody
TTITLE3=Le Ann Rimes - You Light Up My Life
TTITLE4=Le Ann Rimes - How Do I Live (with vocals)
TTITLE5=Le Ann Rimes - On The Side Of Angels (with vocals)
TTITLE6=Le Ann Rimes - Unchained Melody (with vocals)
TTITLE7=Le Ann Rimes - You Light Up My Life (with vocals)
EXTD=
EXTT0=
EXTT1=
EXTT2=
EXTT3=
EXTT4=
EXTT5=
EXTT6=
EXTT7=
PLAYORDER=
